<svg width="383" height="444" xmlns="http://www.w3.org/2000/svg" xmlns:xlink="http://www.w3.org/1999/xlink" overflow="hidden"><defs><clipPath id="clip0"><path d="M84 138 467 138 467 582 84 582Z" fill-rule="evenodd" clip-rule="evenodd"/></clipPath></defs><g clip-path="url(#clip0)" transform="translate(-84 -138)"><path d="M466.988 254.327C466.982 254.005 466.961 253.684 466.924 253.366 466.913 253.266 466.904 253.165 466.889 253.066 466.832 252.678 466.758 252.293 466.656 251.915 466.643 251.865 466.624 251.818 466.61 251.769 466.516 251.439 466.404 251.115 466.277 250.796 466.235 250.694 466.191 250.593 466.147 250.492 466.021 250.203 465.881 249.921 465.726 249.644 465.687 249.575 465.653 249.503 465.613 249.435 465.41 249.089 465.186 248.753 464.94 248.431 464.921 248.406 464.898 248.382 464.879 248.357 464.656 248.072 464.415 247.799 464.159 247.537 464.089 247.465 464.016 247.395 463.944 247.325 463.718 247.108 463.482 246.901 463.233 246.703 463.156 246.641 463.083 246.577 463.004 246.518 462.692 246.284 462.368 246.061 462.022 245.861L280.545 140.36C277.427 138.547 273.574 138.547 270.456 140.36L88.9776 245.86C88.6319 246.061 88.3082 246.283 87.9965 246.517 87.9173 246.576 87.8442 246.641 87.767 246.702 87.5185 246.9 87.282 247.107 87.0565 247.324 86.9834 247.394 86.9112 247.464 86.841 247.536 86.5855 247.798 86.344 248.071 86.1215 248.356 86.1015 248.381 86.0794 248.405 86.0603 248.43 85.8138 248.752 85.5914 249.088 85.387 249.434 85.3469 249.502 85.3118 249.574 85.2737 249.643 85.1193 249.92 84.9791 250.202 84.8528 250.491 84.8088 250.592 84.7647 250.693 84.7235 250.795 84.5962 251.114 84.4841 251.438 84.3898 251.768 84.3758 251.817 84.3568 251.865 84.3437 251.914 84.2425 252.292 84.1683 252.677 84.1112 253.065 84.0972 253.164 84.0882 253.265 84.0762 253.365 84.039 253.684 84.018 254.004 84.012 254.326 84.011 254.384 84 254.441 84 254.5L84 465.5C84 469.059 85.8951 472.349 88.9766 474.141L270.455 579.641C270.484 579.658 270.514 579.668 270.544 579.684 270.901 579.888 271.27 580.075 271.654 580.234 271.658 580.236 271.663 580.237 271.668 580.239 272.031 580.389 272.405 580.512 272.788 580.619 272.885 580.646 272.982 580.67 273.08 580.694 273.379 580.768 273.684 580.828 273.994 580.875 274.097 580.891 274.199 580.91 274.302 580.922 274.696 580.969 275.094 581 275.5 581 275.906 581 276.305 580.969 276.698 580.922 276.801 580.91 276.903 580.891 277.006 580.875 277.316 580.828 277.621 580.768 277.92 580.694 278.017 580.67 278.115 580.647 278.212 580.619 278.595 580.512 278.969 580.389 279.332 580.239 279.336 580.237 279.341 580.236 279.346 580.234 279.73 580.075 280.099 579.888 280.457 579.684 280.486 579.668 280.516 579.657 280.545 579.641L462.023 474.141C465.105 472.349 467 469.059 467 465.5L467 254.5C467 254.442 466.989 254.386 466.988 254.327ZM275.5 348.428 204.669 307.251 366.239 213.324 437.071 254.501 275.5 348.428ZM275.5 160.574 346.331 201.751 184.761 295.678 113.93 254.501 275.5 160.574ZM446.957 459.753 285.521 553.602 285.521 513.001C285.521 507.478 281.035 503.001 275.5 503.001 269.965 503.001 265.479 507.478 265.479 513.001L265.479 553.602 104.043 459.753 104.043 271.9 179.83 315.958C179.835 315.961 179.841 315.964 179.846 315.968L265.479 365.748 265.479 473.001C265.479 478.524 269.965 483.001 275.5 483.001 281.035 483.001 285.521 478.524 285.521 473.001L285.521 365.748 446.957 271.9 446.957 459.753Z" fill="#FFC000" fill-rule="evenodd"/><path d="M339.347 387.07C341.186 390.235 344.501 392 347.907 392 349.598 392 351.312 391.565 352.879 390.649L389.084 369.499C393.806 366.74 395.405 360.665 392.653 355.93 389.902 351.194 383.843 349.592 379.121 352.35L342.916 373.5C338.194 376.259 336.596 382.334 339.347 387.07Z" fill="#FFC000" fill-rule="evenodd"/></g></svg>