<svg id="Calque_1" data-name="Calque 1" xmlns="http://www.w3.org/2000/svg" viewBox="0 0 1032 1032"><title>BLANC_Plan de travail 53 copie 2</title><path d="M523.24,260.2c-70.84,0-130.93,46.86-150.92,111.2H488.68c30.36,0,55.06,16.66,55.06,37.14s-24.54,37-54.77,37.14H476.49V460h0l92.13,96a144.5,144.5,0,0,1-45.37,7.3c-80,0-145.14-65.11-145.14-145.14A144.18,144.18,0,0,1,380.9,390h-13.1a158.13,158.13,0,0,0-2.57,28.17c0,87.12,70.88,158,158,158a157,157,0,0,0,67.71-15.27l-20.14-21.19-78-81.27c35.54-1.58,63.79-23.35,63.79-49.9,0-27.57-30.47-50-67.93-50H391a145.3,145.3,0,0,1,132.26-85.49c80,0,145.14,65.11,145.14,145.13a145.12,145.12,0,0,1-69.67,123.87l9.05,9.52A158,158,0,0,0,681.24,418.2C681.24,331.08,610.36,260.2,523.24,260.2Z" style="fill:#fff"/><path d="M398.18,771.8a34.44,34.44,0,0,1-13.49-2.7,37,37,0,0,1-11.3-7.35,35.72,35.72,0,0,1-7.81-11,31.69,31.69,0,0,1-2.93-13.49,34.48,34.48,0,0,1,2.79-13.81,34.87,34.87,0,0,1,7.63-11.21,36.12,36.12,0,0,1,11.3-7.49,36.18,36.18,0,0,1,27.53,0,36.48,36.48,0,0,1,11.35,7.39A35.51,35.51,0,0,1,431,723.2a33.85,33.85,0,0,1,0,27.34A35.85,35.85,0,0,1,411.9,769.1,35.25,35.25,0,0,1,398.18,771.8Zm0-63.71a27.62,27.62,0,0,0-11.3,2.33,29.57,29.57,0,0,0-9.16,6.28,29.36,29.36,0,0,0-8.37,20.6,26.52,26.52,0,0,0,2.32,11,29.24,29.24,0,0,0,6.28,9,29.73,29.73,0,0,0,9.16,6.09,27.79,27.79,0,0,0,11.07,2.23,28.13,28.13,0,0,0,11.11-2.23,29.24,29.24,0,0,0,9.21-6.14,29.57,29.57,0,0,0,6.28-9.16,28.2,28.2,0,0,0,0-22.32,29.37,29.37,0,0,0-15.44-15.44A27.88,27.88,0,0,0,398.18,708.09Z" style="fill:#fff"/><path d="M492.48,724.74A21.07,21.07,0,0,1,490.9,733a20.27,20.27,0,0,1-4.37,6.56,21.4,21.4,0,0,1-6.6,4.46,24,24,0,0,1-8.18,2l19.62,25.95h-8.65l-23.62-31.53q1.58,0,3.53,0t4,0q2-.09,3.91-.33a21.47,21.47,0,0,0,3.49-.7,16.71,16.71,0,0,0,8.37-5.49,14.32,14.32,0,0,0,3.16-9.3,15.83,15.83,0,0,0-2-7.72,14.06,14.06,0,0,0-5.58-5.67,18.61,18.61,0,0,0-6.56-2.19,55.86,55.86,0,0,0-7-.42H445.14v-6.42h17.76a81,81,0,0,1,8.7.51,26.12,26.12,0,0,1,8.42,2.28,21.05,21.05,0,0,1,9.21,8A21.89,21.89,0,0,1,492.48,724.74Z" style="fill:#fff"/><path d="M547.81,707.91a32.93,32.93,0,0,1,11.58,12.55A34.88,34.88,0,0,1,563.53,737a33.06,33.06,0,0,1-1.12,8.56,36.49,36.49,0,0,1-3.12,7.9,33.79,33.79,0,0,1-11.49,12.37,27.34,27.34,0,0,1-5.21,2.65,44.25,44.25,0,0,1-5.77,1.77,49.62,49.62,0,0,1-6,1,52.09,52.09,0,0,1-5.67.33H504.94v-6.23h18.41q3.07,0,6-.19a43,43,0,0,0,5.72-.74,28.27,28.27,0,0,0,5.44-1.67,27.19,27.19,0,0,0,5.25-3,23.62,23.62,0,0,0,4.74-4.56,26.66,26.66,0,0,0,3.39-5.63,32,32,0,0,0,2.74-12.88,28.54,28.54,0,0,0-3.07-12.93,26.29,26.29,0,0,0-8.74-10,25.48,25.48,0,0,0-11-4.46,83.82,83.82,0,0,0-12-.84H504.94V702h20.27a54.67,54.67,0,0,1,11.72,1.35A31.68,31.68,0,0,1,547.81,707.91Z" style="fill:#fff"/><path d="M576.09,701.86h38.22v6.32H583.15v25.11h18.14v6.32H583.15v25.76h31.16v6.23H576.09Z" style="fill:#fff"/><path d="M676.25,724.74a21.07,21.07,0,0,1-1.58,8.23,20.27,20.27,0,0,1-4.37,6.56,21.4,21.4,0,0,1-6.6,4.46,24,24,0,0,1-8.18,2l19.62,25.95h-8.65l-23.62-31.53q1.58,0,3.53,0t4,0q2-.09,3.91-.33a21.47,21.47,0,0,0,3.49-.7,16.71,16.71,0,0,0,8.37-5.49,14.32,14.32,0,0,0,3.16-9.3,15.83,15.83,0,0,0-2-7.72,14.06,14.06,0,0,0-5.58-5.67,18.61,18.61,0,0,0-6.56-2.19,55.86,55.86,0,0,0-7-.42H628.91v-6.42h17.76a81,81,0,0,1,8.7.51,26.12,26.12,0,0,1,8.42,2.28,21.05,21.05,0,0,1,9.21,8A21.89,21.89,0,0,1,676.25,724.74Z" style="fill:#fff"/><path d="M449.82,635a16.47,16.47,0,0,1,6.63,1.35,17.27,17.27,0,0,1,9.1,9.1,17.13,17.13,0,0,1,0,13.34,17.2,17.2,0,0,1-9.1,9.13,17.06,17.06,0,0,1-13.31,0,17.2,17.2,0,0,1-9.1-9.13,17.13,17.13,0,0,1,0-13.34,17.27,17.27,0,0,1,9.1-9.1A16.59,16.59,0,0,1,449.82,635Zm14.84,17.14a14.45,14.45,0,0,0-1.17-5.81,15,15,0,0,0-7.91-7.91,14.87,14.87,0,0,0-11.58,0,15,15,0,0,0-7.91,7.91,14.93,14.93,0,0,0,0,11.6,14.91,14.91,0,0,0,7.91,7.93,14.87,14.87,0,0,0,11.58,0,14.91,14.91,0,0,0,7.91-7.93A14.51,14.51,0,0,0,464.66,652.09Z" style="fill:#fff"/><path d="M489.9,668.87V635.26h9a9.27,9.27,0,0,1,3.85.82,10.67,10.67,0,0,1,3.19,2.19,10.41,10.41,0,0,1,2.17,11.25,10.59,10.59,0,0,1-2.12,3.24,9.7,9.7,0,0,1-3.14,2.17,9.51,9.51,0,0,1-3.85.79h-6.88v13.16Zm2.24-31.37v16H499a7,7,0,0,0,3-.64,8.13,8.13,0,0,0,2.42-1.71,8,8,0,0,0,1.66-2.52,7.86,7.86,0,0,0,.61-3.09,8,8,0,0,0-4.72-7.37,7.13,7.13,0,0,0-3-.64Z" style="fill:#fff"/><path d="M530.81,668.87V635.26H550v2.24H533.05V648h11.42v2.24H533.05v16.42h18.1v2.24Z" style="fill:#fff"/><path d="M596.49,635.26V671l-23.05-30.6v28.51H571.2V633.68l23.05,30.6v-29Z" style="fill:#fff"/><rect x="338.09" y="650.89" width="61" height="1" style="fill:#fff"/><rect x="634.91" y="650.89" width="61" height="1" style="fill:#fff"/></svg>