<svg width="961" height="54" xmlns="http://www.w3.org/2000/svg" xmlns:xlink="http://www.w3.org/1999/xlink" overflow="hidden"><defs><clipPath id="clip0"><path d="M102 469 1063 469 1063 523 102 523Z" fill-rule="evenodd" clip-rule="evenodd"/></clipPath></defs><g clip-path="url(#clip0)" transform="translate(-102 -469)"><path d="M129.5 496.5 1036.49 496.5" stroke="#3F3F3F" stroke-width="37" stroke-linejoin="round" stroke-miterlimit="10" fill="none" fill-rule="evenodd"/><path d="M111 478 166.5 478 166.5 515 111 515ZM203.5 478 240.5 478 240.5 515 203.5 515ZM277.5 478 314.5 478 314.5 515 277.5 515ZM351.5 478 388.5 478 388.5 515 351.5 515ZM425.5 478 462.5 478 462.5 515 425.5 515ZM499.5 478 536.5 478 536.5 515 499.5 515ZM573.5 478 610.5 478 610.5 515 573.5 515ZM647.5 478 684.5 478 684.5 515 647.5 515ZM721.5 478 758.5 478 758.5 515 721.5 515ZM795.5 478 832.5 478 832.5 515 795.5 515ZM869.5 478 906.5 478 906.5 515 869.5 515ZM943.5 478 980.5 478 980.5 515 943.5 515ZM1017.5 478 1054.99 478 1054.99 515 1017.5 515Z" fill="#FFFFFF"/></g></svg>